<svg width="98" height="98" viewBox="0 0 98 98" fill="none" xmlns="http://www.w3.org/2000/svg">
<path d="M19.581 83.0054C9.33405 83.0054 1 74.6714 1 64.4245C1 54.1776 9.33405 45.8435 19.581 45.8435C29.8279 45.8435 38.1619 54.1776 38.1619 64.4245C38.1619 74.7288 29.8299 83.0054 19.581 83.0054Z" stroke="#00093C" stroke-width="2"/>
<path d="M66.7016 1.18951L66.7016 1.18953L66.7061 1.18203C66.7846 1.0513 66.8964 1 67.0131 1C67.1303 1 67.2726 1.05435 67.3816 1.20989L88.6115 35.9012L88.6115 35.9013L88.6165 35.9092C88.7079 36.0555 88.7122 36.2407 88.628 36.4036C88.5471 36.5602 88.4206 36.634 88.2777 36.634H67.0354H45.793C45.6294 36.634 45.5104 36.5546 45.4396 36.4198C45.367 36.2816 45.3519 36.0884 45.4647 35.8922L66.7016 1.18951Z" stroke="#00093C" stroke-width="2"/>
<path d="M37.9961 9.32904L37.9766 9.34663L37.958 9.36523L29.5322 17.791C28.6077 18.7155 28.6077 20.2981 29.5322 21.2226L37.958 29.6484C38.1015 29.7919 38.1015 30.1081 37.958 30.2516L30.3036 37.906C30.1601 38.0495 29.8439 38.0495 29.7004 37.906L21.2746 29.4802C20.3501 28.5557 18.7675 28.5557 17.843 29.4802L9.41722 37.906C9.27372 38.0495 8.95751 38.0495 8.814 37.906L1.15963 30.2516C1.01613 30.1081 1.01613 29.7919 1.15963 29.6484L9.58537 21.2226C10.5099 20.2981 10.5099 18.7155 9.58537 17.791L1.15963 9.36523C1.01613 9.22173 1.01613 8.9055 1.15963 8.762L8.814 1.10763C8.95751 0.964124 9.27372 0.964125 9.41722 1.10763L17.843 9.53338C18.7675 10.4579 20.3501 10.4579 21.2746 9.53338L29.7004 1.10763C29.8439 0.964124 30.1601 0.964125 30.3036 1.10763L37.958 8.762C38.0751 8.87909 38.1101 8.99867 38.1101 9.08587C38.1101 9.16994 38.079 9.25442 37.9961 9.32904Z" stroke="#00093C" stroke-width="2"/>
<path d="M70.8839 69.8442L67.137 63.0434M67.137 63.0434C67.137 63.0434 64.8534 58.8985 63.3901 56.2426C62.9217 55.3925 61.8122 55.2827 60.7629 55.4738C60.021 55.6089 59.5831 55.8501 59.0725 56.4051C58.3504 57.1901 57.8508 58.1863 58.3187 59.0367C58.5483 59.4538 66.2809 73.4884 67.686 76.0387C68.9794 78.3862 61.5321 74.2379 61.1181 74.1166C59.8049 73.7319 57.2688 75.1292 58.6739 77.6795C58.9606 78.1999 73.7003 88.5693 77.7332 91.4005C78.3576 91.8389 79.1672 91.876 79.8355 91.5079L92.6686 84.4375C93.4354 84.015 93.838 83.1441 93.6484 82.2893C93.1368 79.9819 92.0531 75.3818 90.8735 72.1287C89.3232 67.8532 86.5667 62.3119 86.098 61.462C84.7778 59.0687 79.1532 60.8557 79.1532 60.8557M67.137 63.0434C67.137 63.0434 69.0098 61.2375 70.5179 61.1807C71.5843 61.1406 73.1451 61.9496 73.1451 61.9496M73.1451 61.9496L75.9553 67.0502M73.1451 61.9496C73.1451 61.9496 73.4308 58.4676 78.2168 59.1552C78.3923 59.1804 79.1532 60.8557 79.1532 60.8557M81.9633 65.9563L79.1532 60.8557" stroke="#00093C" stroke-width="2"/>
</svg>
